<svg xmlns="http://www.w3.org/2000/svg" width="256" height="256" style="background-color: #282828">
    <g fill-rule="evenodd" stroke="#282828" stroke-width=".625" stroke-linejoin="round">
        <path aria-label="&gt;_" fill="#fff" d="M63.88887 162.72637v-8.84375h35.66125v8.84375zM36.3945 140.68762l23.18-13.62312-23.18-13.19438 4.9925-8.09562 27.8875 17.26062v8.05938l-27.78063 17.26z"/>
        <g fill="red">
            <path aria-label="d" d="m138.27012 90.26387-4.17281 25.12188c-.2325-1.10063-.60918-2.17307-1.13044-3.2162-.52187-1.04312-1.20387-1.941-2.04325-2.69474-.84062-.7525-1.82487-1.28875-2.95488-1.60813-1.13-.3175-2.30318-.47892-3.52006-.47892-2.02937 0-4.04287.40607-6.04225 1.21668-1.99937.8125-3.73693 2.00007-5.21443 3.56507-1.4775 1.56437-2.60813 3.33262-3.39 5.302-.7825 1.97125-1.34813 3.971-1.69563 5.9985l-1.82569 11.30062c-.29062 1.5075-.49335 3.01294-.60897 4.51919-.11626 1.5075-.10187 2.98475.04381 4.43288.14375 1.44937.44846 2.86968.91287 4.2603.46312 1.39063 1.14388 2.622 2.04326 3.69388.8975 1.07313 2.0275 1.86838 3.39 2.38963 1.36062.52187 2.79537.78281 4.30287.78281 1.15875 0 2.33194-.13014 3.52006-.3914 1.18688-.26062 2.3175-.67924 3.39-1.25924 1.07188-.57875 2.07175-1.2902 2.99988-2.13082.92625-.83937 1.70712-1.78168 2.34587-2.8248l-.95537 5.91093h12.25562l10.5175-63.8875zm-10.345 27.2075c.69562 0 1.36137.14577 1.9995.43516.63688.29062 1.13056.69543 1.47806 1.21668.34813.52125.60779 1.11632.78156 1.78194.17376.66688.27512 1.34763.30512 2.04325.02813.695.01375 1.40581-.0438 2.12956-.05813.725-.14573 1.43394-.26136 2.12957l-1.91194 11.30062c-.11687.8125-.36277 1.62275-.739 2.43338-.3775.8125-.8993 1.5208-1.5643 2.12956-.66688.60812-1.42026 1.04362-2.25963 1.30425-.84125.26062-1.69594.3914-2.5647.3914-.98624 0-1.89912-.23214-2.7385-.6965-.84124-.46313-1.44943-1.11513-1.82568-1.95575-.3775-.83938-.57897-1.751-.60772-2.73725-.02937-.985.04388-1.96988.21758-2.95613l1.91194-11.29937c.11563-.985.36152-1.94231.739-2.86981.37625-.92625.92625-1.76594 1.65188-2.5197.72375-.7525 1.56343-1.3175 2.51968-1.69562.95625-.37563 1.92607-.5652 2.91232-.5652z"/>
            <path aria-label="l" d="M177.12637 144.07012v10.08375h-30.42375v-10.08375h10.43062l7.215-43.72312h-7.82312V90.26325h21.73125l-8.95313 53.80687z"/>
            <path aria-label="#" d="m194.86387 91.34512-2.821 16.56938H181.256c.01756 3.21174.03474 6.42374.05137 9.635h9.18437c-.53878 3.21562-1.07756 6.43124-1.61637 9.64687h-10.48938c.00938 3.18394.0212 6.36812.03057 9.5525h8.89875c-.94675 5.71644-1.894 11.4325-2.84044 17.14937h10.15437c.95907-5.7168 1.92063-11.4325 2.8807-17.14937h5.23587c-.96125 5.71637-1.92044 11.43312-2.88307 17.14937h10.20313c.94525-5.7168 1.893-11.4325 2.83925-17.14937h10.27875c-.00931-3.18394-.02113-6.36813-.03056-9.5525h-8.68563c.53881-3.21563 1.07763-6.43125 1.61638-9.64688h10.07312c-.01756-3.2118-.03344-6.42312-.05025-9.635h-8.46937c.98731-5.80006 1.97456-11.6 2.962-17.4h-10.20438c-.97487 5.79963-1.94681 11.6-2.92056 17.4h-5.23706c.95937-5.8 1.91825-11.6 2.87793-17.4h-10.11062c-.04694.27695-.09398.5539-.14097.83082zm11.02562 26.20438c-.52735 3.21562-1.05468 6.43124-1.58206 9.64687h-5.27262c.5388-3.21563 1.07762-6.43125 1.61637-9.64688z"/>
        </g>
    </g>
</svg>